<?xml version="1.0"?>
<svg xmlns="http://www.w3.org/2000/svg" xmlns:xlink="http://www.w3.org/1999/xlink" xmlns:svgjs="http://svgjs.com/svgjs" version="1.1" width="512" height="512" x="0" y="0" viewBox="0 0 512 512" style="enable-background:new 0 0 512 512" xml:space="preserve" class=""><g><g xmlns="http://www.w3.org/2000/svg"><path d="m388.502 258.648c-22.266-13.981-46.64-17.273-68.623-9.27-21.987 8.003-38.54 26.19-46.61 51.212-7.636 23.678-6.695 50.855 2.648 76.528 9.345 25.671 26.094 47.095 47.163 60.325 14.302 8.98 29.471 13.55 44.32 13.55 8.269 0 16.438-1.417 24.303-4.279 21.987-8.003 38.54-26.19 46.61-51.213 7.636-23.678 6.695-50.855-2.648-76.526-9.343-25.673-26.093-47.097-47.163-60.327zm21.259 127.646c-5.165 16.017-15.222 27.462-28.317 32.229-13.099 4.769-28.158 2.463-42.41-6.486-15.448-9.699-27.852-25.745-34.925-45.179-7.074-19.436-7.887-39.699-2.287-57.06 5.165-16.017 15.222-27.462 28.317-32.229 4.462-1.624 9.148-2.427 13.955-2.427 9.306 0 19.058 3.012 28.455 8.912 15.448 9.7 27.852 25.745 34.925 45.181 7.074 19.434 7.887 39.698 2.287 57.059z" fill="#f2f2f2" data-original="#000000" style="" class=""/><path d="m501.444 295.033c-11.943-32.812-32.886-60.709-60.566-80.675-19.521-14.079-33.738-32.234-41.115-52.504l-.026-.071c-9.593-26.355-28.874-47.397-54.293-59.251-25.419-11.852-53.934-13.096-80.286-3.505-11.71 4.262-22.368 10.441-31.641 18.218-16.46-18.62-38.825-30.686-63.516-34.18v-8.862c0-18.535 8.924-36.146 23.87-47.105 6.681-4.899 8.125-14.286 3.227-20.967-4.9-6.682-14.287-8.123-20.967-3.227-13.448 9.862-23.674 23.281-29.757 38.435-5.634-6.772-12.502-13.053-20.834-17.864-34.11-19.691-77.313-5.88-79.138-5.282-7.265 2.383-11.575 9.848-10.006 17.331.394 1.877 10.031 46.199 44.142 65.894 2.726 1.574 5.511 2.929 8.327 4.098-23.696 19.276-38.865 48.666-38.865 81.56 0 21.569-7.15 43.493-20.678 63.4-19.182 28.23-29.322 61.607-29.322 96.524 0 90.981 69.532 165 155 165 37.632 0 74.113-14.783 102.234-41.003 10.547 9.404 22.28 17.467 35.006 23.944 22.275 11.338 46.013 17.059 69.673 17.059 17.003 0 33.967-2.955 50.312-8.904 80.313-29.233 120.336-122.569 89.219-208.063zm-430.933-251.35c11.401-1.458 27.332-1.557 40.027 5.773 12.741 7.356 20.605 21.166 25.028 31.754-11.403 1.46-27.33 1.558-40.028-5.772-12.74-7.357-20.604-21.166-25.027-31.755zm84.489 438.317c-68.925 0-125-60.561-125-135 0-28.88 8.346-56.427 24.135-79.662 16.921-24.901 25.865-52.655 25.865-80.338 0-41.355 33.645-75 75-75 23.031 0 44.224 10.272 58.385 27.897-2.789 4.251-5.292 8.732-7.48 13.423-11.853 25.418-13.098 53.932-3.479 80.359 7.378 20.268 8.156 43.314 2.253 66.648-8.371 33.086-6.482 67.919 5.46 100.73 6.416 17.63 15.427 33.81 26.597 48.074-22.683 21.284-51.273 32.869-81.736 32.869zm246.964-7.096c-31.189 11.354-65.324 8.974-96.117-6.699-31.14-15.849-55.118-43.339-67.517-77.406-9.878-27.14-11.458-55.879-4.567-83.113 7.384-29.187 6.296-58.325-3.172-84.339-14.145-38.861 5.965-81.984 44.826-96.128 8.371-3.048 17.045-4.563 25.696-4.563 10.803 0 21.568 2.365 31.65 7.066 18.156 8.467 31.929 23.496 38.785 42.333l.021.062c9.443 25.942 27.341 48.963 51.757 66.573 22.783 16.435 40.047 39.465 49.925 66.604 25.461 69.949-6.518 146.037-71.287 169.61z" fill="#f2f2f2" data-original="#000000" style="" class=""/></g></g></svg>
