<svg width="136" height="151" viewBox="0 0 136 151" fill="none" xmlns="http://www.w3.org/2000/svg">
<path d="M68.2647 1L74.6464 7.08223L81.8253 2.38398L86.8553 9.63571L94.8274 6.48736L98.3035 14.6051L106.741 13.1361L108.522 21.7921L117.084 22.0592L117.092 30.9013L125.425 32.8963L123.664 41.5563L131.426 45.1943L127.966 53.3201L134.841 58.4595L129.828 65.7193L135.533 72.1414L129.164 78.2399L133.47 85.6858L126.011 90.3679L128.735 98.5342L120.492 101.61L121.528 110.16L112.835 111.508L112.139 120.091L103.354 119.65L100.954 127.917L92.4398 125.708L88.4295 133.32L80.5303 129.435L75.0794 136.08L68.119 130.673L61.45 136.08L55.7158 129.374L48.1039 133.32L43.8265 125.595L35.5793 127.917L32.9368 119.484L24.3941 120.091L23.4958 111.298L15.0057 110.16L15.8839 101.363L7.79445 98.5342L10.4208 90.0968L3.06383 85.6858L7.32099 77.9525L1 72.1414L6.71802 65.4279L1.68794 58.4595L8.63617 53.0409L5.10338 45.1943L12.9945 41.2933L11.1047 32.8963L19.6149 30.6706L19.449 22.0592L28.2304 21.6019L29.7884 13.1361L38.4808 14.4675L41.706 6.48736L49.9532 9.55073L54.7081 2.38398L62.1744 7.0539L68.2647 1Z" fill="url(#paint0_linear)"/>
<path d="M68.2647 1.00002L74.6464 7.08225L81.8252 2.384L86.8553 9.63573L94.8274 6.48738L98.3035 14.6051L106.741 13.1362L108.521 21.7921L117.084 22.0592L117.092 30.9013L125.425 32.8963L123.664 41.5563L131.426 45.1943L127.966 53.3201L134.841 58.4595L129.828 65.7193L135.533 72.1415L129.164 78.2399L133.47 85.6858L126.011 90.3679L128.735 98.5342L120.492 101.61L121.528 110.16L112.835 111.508L112.139 120.091L103.354 119.65L100.954 127.917L92.4398 125.708L88.4295 133.32L80.5303 129.435L75.0794 136.08L68.119 130.673L61.45 136.08L55.7158 129.374L48.1039 133.32L43.8265 125.595L35.5793 127.917L32.9368 119.484L24.3941 120.091L23.4957 111.298L15.0057 110.16L15.8839 101.363L7.79445 98.5342L10.4208 90.0968L3.06383 85.6858L7.32099 77.9526L1 72.1415L6.71802 65.4279L1.68794 58.4595L8.63617 53.0409L5.10338 45.1943L12.9945 41.2933L11.1047 32.8963L19.6149 30.6706L19.449 22.0592L28.2304 21.6019L29.7884 13.1362L38.4808 14.4675L41.706 6.48738L49.9532 9.55075L54.7081 2.384L62.1743 7.05392L68.2647 1.00002Z" stroke="#EAD23E" stroke-width="0.309354" stroke-miterlimit="2.61313"/>
<path fill-rule="evenodd" clip-rule="evenodd" d="M51.7702 13.4396C51.7702 13.6946 51.8188 13.5894 51.487 13.6015L51.3858 13.6096C50.4308 14.1195 46.7563 15.2404 44.0895 16.6001C41.8193 17.7534 39.5086 18.9675 37.6188 20.2907C34.6162 22.391 34.5352 22.5974 31.9089 24.726C29.3514 26.7938 27.7043 28.9062 25.6365 31.2209C21.5129 35.8261 17.628 43.6646 15.8232 49.3867C15.4347 50.6088 15.026 52.0737 14.7427 53.3849L13.9617 57.2373C13.9495 57.2738 13.9252 57.3304 13.9131 57.3588L13.8038 57.6016C13.9091 58.423 13.468 61.4945 13.387 62.6316C13.0835 66.9657 13.5732 74.3914 14.7912 78.252L17.632 78.248C17.5309 76.4876 15.8312 70.2921 16.3007 67.7588C15.6006 66.0511 16.673 57.8929 17.1464 55.6672C17.9032 52.094 18.9149 48.6057 20.2705 45.5464C20.9585 43.9965 21.6828 42.4749 22.4153 41.0707C23.7709 38.4605 27.1904 33.4588 29.2259 31.4314C29.7479 30.9094 30.2295 30.274 30.7434 29.7075L34.1386 26.4944C35.8423 24.9971 40.1359 21.9742 41.8841 20.9989C43.3126 20.1977 44.6763 19.449 46.2424 18.7328C52.7131 15.7786 59.7908 13.9293 67.7305 13.9131C70.543 13.994 72.9993 14.0952 75.743 14.4756L82.3351 15.9243C82.6144 16.066 82.4606 15.9688 82.6346 16.1348C84.9696 16.066 93.1925 20.3636 95.0783 21.4805C97.0207 22.6378 98.7446 23.8964 100.355 25.1347C101.298 25.8671 101.905 26.5429 102.751 27.1864C107.838 31.0591 112.928 38.9826 115.818 45.3481C116.324 46.469 118.011 50.8111 117.995 51.8835C118.367 52.2801 118.4 52.7819 118.537 53.397C119.97 59.6492 120.463 65.5898 119.642 72.0079L118.549 78.2722L121.439 78.2803C122.908 73.7682 123.138 65.2539 122.604 60.2076C121.884 53.4132 120.771 50.7221 118.655 44.6399C117.137 40.3099 113.754 35.3972 111.075 31.7875L102.662 23.2894C100.181 21.4886 99.4568 20.8451 96.701 19.0889C95.2563 18.1662 93.8562 17.5471 92.3832 16.7013C89.8661 15.8677 87.9641 14.5768 83.5815 13.294C76.3662 11.1775 69.2318 10.5907 61.6968 11.4203C57.7108 11.8614 52.5472 13.3749 51.7702 13.4396Z" fill="#9D6A1E"/>
<path fill-rule="evenodd" clip-rule="evenodd" d="M19.4005 62.5507C19.5057 63.7162 19.3317 65.3551 19.36 66.6258C19.3883 68.0178 19.4652 69.3371 19.6109 70.7251C19.8861 73.3636 20.4688 75.8847 20.8937 78.1508C21.2781 78.4341 22.1806 78.2884 22.7633 78.2682L22.2534 76.0546C21.181 73.5133 20.9463 65.7031 21.1851 62.6276C23.0263 38.7276 41.6655 20.3434 65.2822 18.8906C67.7265 18.7408 70.0655 18.8218 72.4814 19.0039C73.2867 19.0686 77.9161 19.5057 78.6122 20.1289C81.0361 20.0156 88.4376 23.3905 90.5136 24.5034C95.3413 27.0933 100.562 31.1643 103.961 35.3608C104.285 35.7573 104.592 36.1337 104.904 36.5788C105.58 37.5338 106.458 38.4484 107.441 40.0347C108.631 41.9569 112.621 48.9092 112.605 50.9649C113.017 51.3656 113.017 51.7136 113.212 52.4177C115.053 59.0503 115.607 64.8209 114.758 71.7691C114.616 72.9184 114.422 74.0717 114.175 75.2008C113.981 76.083 113.58 77.4427 113.491 78.2682L115.223 78.2399C117.598 69.7094 117.024 62.749 115.454 54.0769C114.45 49.4676 112.495 45.2955 110.387 41.5482C109.286 39.5855 106.478 35.5105 104.811 33.7421C102.018 30.7839 101.351 29.9746 98.0081 27.328C91.8207 22.4274 87.6323 21.0475 80.4939 18.6235L80.0852 18.4616C78.948 18.5021 77.7381 18.0529 76.5564 17.8303C71.0326 16.7903 66.2211 17.3366 64.8088 17.106C64.222 17.4257 60.8349 17.6604 59.7827 17.8263C51.1268 19.1738 43.9439 22.913 37.2506 28.0726C34.6769 30.0514 30.9943 33.9484 29.0033 36.7407C24.3415 43.2721 21.4764 49.4838 20.052 57.6177C19.8213 58.941 19.7687 61.5633 19.4005 62.5507Z" fill="#9D6A1E"/>
<path fill-rule="evenodd" clip-rule="evenodd" d="M108.016 95.7703C111.261 95.402 114.268 93.6255 115.802 92.0392C116.963 90.8333 119.423 87.1993 119.747 84.7875C115.393 86.5195 108.724 90.4812 108.016 95.7703Z" fill="#9D6A1E"/>
<path fill-rule="evenodd" clip-rule="evenodd" d="M22.6702 88.2312C21.266 87.1305 17.3609 84.6539 15.459 84.1076C15.8474 86.6368 18.3564 90.2991 19.6149 91.4767C21.1608 92.9173 23.8721 94.7424 27.2066 95.0459C26.5106 91.4848 24.6046 89.7447 22.6702 88.2312Z" fill="#9D6A1E"/>
<path fill-rule="evenodd" clip-rule="evenodd" d="M95.1228 113.985C98.1295 114.579 99.7684 114.426 102.508 113.337C103.54 112.928 107.421 111.128 108.153 110.581C107.348 109.974 104.863 109.841 104.281 109.27C103.107 109.339 101.958 109.039 100.541 109.222C97.8584 109.57 94.3175 111.674 93.4272 113.195C94.0342 113.685 94.451 113.657 95.1228 113.985Z" fill="#9D6A1E"/>
<path fill-rule="evenodd" clip-rule="evenodd" d="M109.91 103.884C109.91 103.601 109.849 103.702 110.181 103.661L110.177 103.605L110.326 103.52C110.824 103.111 111.192 102.824 111.722 102.415C112.613 101.727 115.328 99.4852 115.903 98.7325L111.237 98.688C106.352 99.4811 104.179 101.719 102.257 105.13C103.637 105.519 105.276 105.515 106.656 105.199C107.251 105.062 107.854 104.843 108.38 104.612C108.894 104.39 109.428 103.989 109.91 103.884Z" fill="#9D6A1E"/>
<path fill-rule="evenodd" clip-rule="evenodd" d="M23.3663 101.678C26.1099 103.997 28.9912 105.086 32.9246 104.442C32.2084 102.613 29.8977 100.205 27.9148 99.1412C25.6122 97.8988 22.1644 97.6439 19.2669 98.0243L23.3663 101.678Z" fill="#9D6A1E"/>
<path fill-rule="evenodd" clip-rule="evenodd" d="M27.417 110.079C27.4494 110.1 27.4899 110.12 27.5222 110.14C30.3671 111.791 34.8873 113.887 38.1449 113.624C39.3265 113.527 41.1071 113.09 41.8193 112.427C40.5325 111.14 38.1449 109.213 35.4498 108.659C31.7956 107.906 30.011 109.169 27.0043 109.772L27.417 110.079Z" fill="#9D6A1E"/>
<path fill-rule="evenodd" clip-rule="evenodd" d="M81.4651 118.529C86.6085 116.611 89.1256 113.471 89.4978 106.696C88.8382 106.927 88.5024 107.437 87.9358 107.862C84.7025 110.278 80.7772 113.835 81.4651 118.529Z" fill="#9D6A1E"/>
<path fill-rule="evenodd" clip-rule="evenodd" d="M102.358 103.224C102.973 102.565 103.714 100.942 104.078 99.991C105.624 95.9038 104.143 92.2658 101.97 88.9839C101.298 90.7685 100.432 94.3377 100.254 96.3571C100.044 98.692 100.529 100.812 101.808 102.674L102.358 103.224Z" fill="#9D6A1E"/>
<path fill-rule="evenodd" clip-rule="evenodd" d="M80.7731 124.437C81.3235 124.409 81.801 124.429 82.3473 124.458C82.5092 124.466 82.9705 124.486 83.104 124.466C83.5411 124.389 83.3185 124.49 83.5734 124.259L83.2902 123.927C83.0797 123.931 83.1323 123.98 83.1485 123.761L83.0109 123.592C82.8005 123.592 82.8531 123.64 82.8734 123.422C82.6629 123.422 82.7155 123.474 82.7317 123.256C82.5172 123.264 82.5699 123.316 82.5779 123.102L82.2421 122.819L82.0802 122.677L81.9102 122.535L81.7443 122.394L81.5825 122.252C81.3639 122.26 81.4125 122.313 81.4206 122.102C81.2021 122.106 81.2466 122.159 81.2709 121.949C80.761 121.702 80.7286 121.499 80.2187 121.155C77.0582 118.994 73.752 118.788 70.0614 119.99C72.1091 123.672 76.7223 124.368 80.7731 124.437Z" fill="#9D6A1E"/>
<path fill-rule="evenodd" clip-rule="evenodd" d="M84.1238 118.909L84.314 119.051L85.5321 119.662L85.7465 119.816L86.9767 120.245C87.2398 120.249 87.2115 120.168 87.1629 120.395L88.3486 120.747C91.7236 121.277 93.3706 121.018 96.0414 119.634L96.1669 119.626L96.353 119.488C96.5756 119.359 96.786 119.286 97.0248 119.1C97.5589 118.695 97.2797 119.051 97.5063 118.497C96.9276 118.331 96.1588 117.712 95.4101 117.36C94.4713 116.914 93.9695 116.914 92.9012 116.595C89.2267 116.413 86.4466 117.38 83.2376 118.234L83.6868 118.622C83.8446 118.739 83.9862 118.812 84.1238 118.909Z" fill="#9D6A1E"/>
<path fill-rule="evenodd" clip-rule="evenodd" d="M93.1197 111.957C94.5644 111.022 96.6322 108.748 97.4132 106.713C98.4371 104.038 98.0324 101.165 97.4861 98.3966C97.4537 98.4249 97.4132 98.4654 97.389 98.4897L97.13 98.7568C95.6084 100.493 92.7433 105.256 92.4843 107.813C92.3953 108.72 92.4479 111.156 93.1197 111.957Z" fill="#9D6A1E"/>
<path fill-rule="evenodd" clip-rule="evenodd" d="M69.9764 118.796C72.4045 119.177 75.5569 117.979 77.5438 116.546C78.7012 115.717 81.0402 112.601 81.6391 110.561C79.814 110.909 75.8402 112.524 74.3631 113.369C72.2305 114.592 70.9031 116.073 69.9764 118.796Z" fill="#9D6A1E"/>
<path fill-rule="evenodd" clip-rule="evenodd" d="M51.5436 123.77C53.9555 123.798 57.7432 123.701 59.9122 123.069C62.1015 122.434 63.8497 121.362 65.0799 119.342C64.3029 118.788 62.0975 118.598 60.9442 118.582C57.5004 118.525 56.0274 119.86 53.8948 121.374C53.0692 121.957 52.0292 122.94 51.5436 123.77Z" fill="#9D6A1E"/>
<path fill-rule="evenodd" clip-rule="evenodd" d="M52.1789 117.19L53.7572 117.708C53.8745 114.09 52.8831 113.701 51.8673 111.35C51.75 111.302 47.5657 106.907 45.7082 105.928C45.9713 110.525 47.1124 114.151 50.9204 116.441C51.1915 116.607 51.9645 116.979 52.1789 117.19Z" fill="#9D6A1E"/>
<path fill-rule="evenodd" clip-rule="evenodd" d="M33.2322 88.3364C32.1517 89.2834 30.618 93.3625 30.529 95.3818C30.4237 97.7046 31.6337 101.262 32.8963 102.532C34.3329 101.043 35.2029 98.3076 34.9358 95.5153C34.8104 94.2042 33.7299 89.1822 33.2322 88.3364Z" fill="#9D6A1E"/>
<path fill-rule="evenodd" clip-rule="evenodd" d="M37.8535 97.6763C36.8257 99.2869 37.1656 104.268 37.8657 106.11C38.9785 109.044 41.443 110.476 42.1026 111.273C44.1179 107.915 41.621 103.309 39.7717 100.517C39.197 99.6511 38.3472 98.5382 37.8535 97.6763Z" fill="#9D6A1E"/>
<path fill-rule="evenodd" clip-rule="evenodd" d="M39.6665 119.172C42.1835 120.043 43.434 120.751 46.5661 120.034C48.0918 119.682 51.2077 118.343 51.9564 117.477C51.0701 117.392 49.3098 116.801 48.3224 116.566C42.916 115.288 41.6898 115.526 37.6674 117.89C37.8414 118.124 37.7119 117.975 37.9223 118.177C38.3634 118.598 39.0999 118.901 39.6665 119.172Z" fill="#9D6A1E"/>
<path fill-rule="evenodd" clip-rule="evenodd" d="M53.6115 110.116L53.8543 110.44C53.8907 110.496 54.0323 110.784 54.0607 110.844C54.2023 111.128 54.3116 111.358 54.4694 111.674C56.5656 115.976 60.0943 118.056 65.2418 118.128C64.9018 116.833 64.3191 115.798 63.5421 114.907C62.8502 114.114 62.0206 113.305 60.8632 112.665C58.7144 111.484 54.2185 110.112 53.8745 109.865C53.3687 109.881 53.6074 109.651 53.6115 110.116Z" fill="#9D6A1E"/>
<path fill-rule="evenodd" clip-rule="evenodd" d="M94.1475 79.3284C97.0976 79.3082 97.1138 79.7291 97.0895 82.7641C97.0693 85.7668 96.9681 85.9812 94.1556 86.0096L94.1516 80.4575L94.1475 79.3284ZM92.1282 87.3733C97.1381 87.3531 99.1169 88.2231 99.1978 82.6103C99.2747 77.1513 96.9843 77.989 92.1323 77.989L92.1282 87.3733Z" fill="#9D6A1E"/>
<path fill-rule="evenodd" clip-rule="evenodd" d="M26.8141 71.7408L26.8019 74.4602L31.6823 74.44L31.7349 64.0682L37.113 64.0642L37.1454 74.444H42.0055L42.0014 56.3714L41.9812 51.1632L37.1858 51.1592L37.1615 60.1469L31.7025 60.1429L31.6661 51.1551L26.8343 51.1389L26.8141 71.7408Z" fill="#9D6A1E"/>
<path fill-rule="evenodd" clip-rule="evenodd" d="M50.6897 64.8573C50.5967 64.0197 51.8593 58.3138 52.1547 56.9824L53.6317 64.8573H50.6897ZM48.7069 74.3914C49.063 72.7606 49.3584 71.1014 49.6619 69.4908C49.8885 68.289 50.3498 68.6774 51.7055 68.6815C52.5796 68.6855 53.5265 68.6248 54.4127 68.7098L55.5863 74.4319L60.754 74.4278C60.6326 73.145 59.5359 68.9931 59.111 67.0952L55.3718 51.1268L49.067 51.1106L43.7415 74.4278L48.7069 74.3914Z" fill="#9D6A1E"/>
<path fill-rule="evenodd" clip-rule="evenodd" d="M71.9351 65.9176C71.8015 67.2044 71.9513 68.7058 71.4495 69.8834C71.0165 70.9112 69.6932 71.6113 68.3982 70.8667C66.8888 70.0007 67.1033 65.3146 67.0911 63.2427C67.079 61.4298 67.0062 56.2621 67.8762 55.1007C68.5034 54.263 70.1019 54.1254 70.9638 54.9267C71.7853 55.6875 71.7934 57.2212 71.8015 58.6092L76.5281 58.6132C76.6009 55.6025 75.9777 53.567 74.3429 52.0414C72.9306 50.7221 69.6932 50.2325 67.1478 50.8354C61.9356 52.0697 62.0287 57.6056 62.0934 63.3965C62.1541 69.0862 62.4617 74.3348 68.1797 74.9215C71.324 75.2453 73.3514 74.5533 74.9377 72.9063C76.3096 71.4818 77.0218 68.3739 76.5848 65.9054L71.9351 65.9176Z" fill="#9D6A1E"/>
<path fill-rule="evenodd" clip-rule="evenodd" d="M84.3626 74.7637C87.2924 75.2493 90.0199 74.8973 91.6952 73.1936C93.7145 71.1419 93.6255 69.2723 93.7348 65.8893L89.0123 65.9054C88.9151 67.2409 89.0365 68.8757 88.4943 70.0007C88.0532 70.9112 86.5883 71.6356 85.4107 70.7858C83.9984 69.766 84.2088 65.1811 84.1926 63.0889C84.1805 61.2679 84.0712 56.1488 85.0343 55.0157C85.7344 54.1902 87.3531 54.174 88.1503 54.9874C88.9516 55.8048 88.8666 57.3426 88.9111 58.6213L93.6377 58.6254C93.7429 54.3804 92.3468 51.4667 88.5266 50.7666C84.2412 49.9816 80.9309 51.6407 79.9152 54.8255C78.9926 57.7068 79.0937 63.8618 79.3244 67.0588C79.5672 70.369 80.4534 74.0475 84.3626 74.7637Z" fill="#9D6A1E"/>
<path fill-rule="evenodd" clip-rule="evenodd" d="M101.545 54.7486C104.685 54.5301 106.543 54.6636 106.482 58.0184C106.429 61.106 104.523 61.365 101.492 61.1424L101.545 54.7486ZM110.278 53.3404L110.189 53.138C109.958 53.138 110.023 53.1866 110.075 52.9397C109.829 52.96 109.885 53.0126 109.926 52.7657C109.679 52.8102 109.727 52.8669 109.76 52.616C109.513 52.6686 109.562 52.7253 109.574 52.4865C109.319 52.5351 109.375 52.5998 109.375 52.3489C106.385 50.3579 100.861 51.3494 96.8669 51.1268L96.8103 74.4157L101.594 74.4117L101.589 64.7197C103.338 64.5741 105.13 64.8371 106.83 64.4648C112.718 63.186 111.787 55.6227 110.278 53.3404Z" fill="#9D6A1E"/>
<path fill-rule="evenodd" clip-rule="evenodd" d="M55.6065 79.2799C56.9784 79.2799 58.3988 79.0371 58.3826 80.6112C58.3664 82.2137 56.9986 81.9628 55.5458 81.9628L55.6065 79.2799ZM59.0584 82.4646C59.9851 82.1854 60.4343 81.7484 60.4747 80.6072C60.6002 77.2322 56.9015 77.989 53.5386 77.9768V87.3774H55.5418L55.5741 83.2497C59.548 83.2497 57.982 84.1966 58.5849 87.3814H61.0008C59.7059 84.7187 61.5876 84.2897 59.0584 82.4646Z" fill="#9D6A1E"/>
<path fill-rule="evenodd" clip-rule="evenodd" d="M48.201 79.5429L51.8957 79.5348L51.8916 77.9768L46.125 77.9687L46.1331 87.3774L51.9807 87.349V85.8153L48.2091 85.7708L48.201 83.2133L51.6326 83.1404L51.6205 81.7403L48.201 81.6755V79.5429Z" fill="#9D6A1E"/>
<path fill-rule="evenodd" clip-rule="evenodd" d="M42.4182 84.0955C42.3292 85.2043 42.1228 86.8027 40.577 86.0419C39.5005 85.5159 39.6948 79.9516 40.3504 79.4134C40.6498 79.1666 42.1754 78.4584 42.3737 80.8783L44.3445 80.8905C44.4699 78.3329 42.657 77.3577 40.1359 77.823C37.7645 78.2601 37.6593 80.421 37.7079 82.9179C37.7524 85.4066 38.0397 87.3693 40.6134 87.5797C43.1628 87.7901 44.6601 86.6044 44.4052 84.0348L42.4182 84.0955Z" fill="#9D6A1E"/>
<path fill-rule="evenodd" clip-rule="evenodd" d="M90.461 79.5024L90.465 77.989L84.7591 78.082L84.7551 87.345L90.5581 87.2843L90.5662 85.872L86.7946 85.8113L86.7704 83.1809L90.1979 83.185L90.1737 81.7403H86.7663V79.6886L90.461 79.5024Z" fill="#9D6A1E"/>
<path fill-rule="evenodd" clip-rule="evenodd" d="M75.484 79.5186L79.2637 79.5227L79.2758 77.9647L73.3878 77.9687L73.3797 87.3936H75.4881L75.4962 83.2659L79.0775 83.1971L79.0411 81.7322L75.4881 81.7403L75.484 79.5186Z" fill="#9D6A1E"/>
<path fill-rule="evenodd" clip-rule="evenodd" d="M61.3812 79.5146L63.7728 79.5186V87.3693L65.865 87.3814L65.8569 79.5267L68.2647 79.462V77.9849L61.361 77.9809L61.3812 79.5146Z" fill="#9D6A1E"/>
<path fill-rule="evenodd" clip-rule="evenodd" d="M69.3735 87.3895L70.3326 87.3936H71.4778L71.4737 86.2969V77.9728H69.3775V78.9197L69.3735 87.3895Z" fill="#9D6A1E"/>
<path fill-rule="evenodd" clip-rule="evenodd" d="M80.7165 83.1485L80.7326 87.3409L82.7762 87.3571L82.7641 77.989L80.676 78.078L80.7165 83.1485Z" fill="#9D6A1E"/>
<path fill-rule="evenodd" clip-rule="evenodd" d="M60.6164 135.104L59.8434 137.067H30.1162L34.5757 124.717L35.5793 127.917L43.8265 125.595L48.1039 133.32L55.7158 129.374L60.6164 135.104ZM77.6531 132.939L79.8707 138.589H105.6L101.403 126.364L100.954 127.917L92.4398 125.708L88.4295 133.32L80.5303 129.435L77.6531 132.939Z" fill="#F04338"/>
<path fill-rule="evenodd" clip-rule="evenodd" d="M59.8434 137.067L54.3237 151L42.0095 142.316L27.6882 143.777L30.1162 137.067H59.8434ZM79.8707 138.589L84.7308 150.976L97.0005 142.287L107.591 144.392L105.6 138.589H79.8707Z" fill="#ED1C24"/>
<defs>
<linearGradient id="paint0_linear" x1="29.8384" y1="12.8727" x2="111.963" y2="120.224" gradientUnits="userSpaceOnUse">
<stop stop-color="#EBD43F"/>
<stop offset="0.25" stop-color="#F1E46A"/>
<stop offset="0.53125" stop-color="#FBF6B8"/>
<stop offset="0.78125" stop-color="#F1E46A"/>
<stop offset="1" stop-color="#EBD43F"/>
</linearGradient>
</defs>
</svg>
