<?xml version="1.0" encoding="UTF-8"?>
<svg xmlns="http://www.w3.org/2000/svg" xmlns:xlink="http://www.w3.org/1999/xlink" width="150pt" height="89pt" viewBox="0 0 150 89" version="1.1">
<g id="surface1">
<path style=" stroke:none;fill-rule:nonzero;fill:rgb(99.215686%,84.313725%,26.27451%);fill-opacity:1;" d="M 86.035156 37.753906 C 86.035156 49.542969 76.496094 59.097656 64.730469 59.097656 C 52.964844 59.097656 43.425781 49.542969 43.425781 37.753906 C 43.425781 32.632812 45.226562 27.929688 48.230469 24.25 C 45.683594 27.664062 44.175781 31.902344 44.175781 36.488281 C 44.175781 47.78125 53.3125 56.9375 64.589844 56.9375 C 75.863281 56.9375 85.003906 47.78125 85.003906 36.488281 C 85.003906 30.257812 82.222656 24.675781 77.832031 20.925781 C 82.828125 24.832031 86.035156 30.917969 86.035156 37.753906 "/>
<path style=" stroke:none;fill-rule:nonzero;fill:rgb(0.392157%,0%,0.392157%);fill-opacity:1;" d="M 88.425781 40.125 C 88.425781 52.324219 78.554688 62.210938 66.378906 62.210938 C 59.425781 62.210938 53.226562 58.988281 49.1875 53.957031 C 53.238281 57.820312 58.722656 60.191406 64.761719 60.191406 C 77.234375 60.191406 87.347656 50.0625 87.347656 37.566406 C 87.347656 35.089844 86.949219 32.707031 86.214844 30.480469 C 87.628906 33.394531 88.425781 36.667969 88.425781 40.125 "/>
<path style=" stroke:none;fill-rule:nonzero;fill:rgb(0%,0%,0%);fill-opacity:1;" d="M 50.164062 29.726562 L 46.371094 30.011719 C 46.628906 29.285156 46.925781 28.582031 47.261719 27.902344 L 51.953125 27.039062 C 51.277344 27.875 50.679688 28.777344 50.164062 29.726562 "/>
<path style=" stroke:none;fill-rule:nonzero;fill:rgb(0%,0%,0%);fill-opacity:1;" d="M 62.492188 55.714844 C 52.800781 54.640625 45.265625 46.492188 45.265625 36.496094 C 45.265625 35.359375 45.363281 34.242188 45.550781 33.160156 L 48.820312 32.917969 C 48.292969 34.597656 48.011719 36.390625 48.011719 38.246094 C 48.011719 46.96875 54.242188 54.152344 62.492188 55.714844 "/>
<path style=" stroke:none;fill-rule:nonzero;fill:rgb(0%,0%,0%);fill-opacity:1;" d="M 83.429688 41.5 C 83.625 40.445312 83.722656 39.355469 83.722656 38.246094 C 83.722656 28.367188 75.730469 20.359375 65.867188 20.359375 C 61.917969 20.359375 58.273438 21.640625 55.316406 23.816406 L 49.046875 24.96875 C 52.578125 20.167969 58.261719 17.054688 64.675781 17.054688 C 75.394531 17.054688 84.082031 25.757812 84.082031 36.496094 C 84.082031 38.226562 83.855469 39.90625 83.429688 41.5 "/>
<path style=" stroke:none;fill-rule:nonzero;fill:rgb(0%,0%,0%);fill-opacity:1;" d="M 34.394531 33.507812 C 34.394531 34.402344 33.671875 35.125 32.78125 35.125 L 30.976562 35.125 L 30.976562 30.949219 L 32.78125 30.949219 C 33.671875 30.949219 34.394531 31.671875 34.394531 32.570312 Z M 33.691406 28.742188 L 27.867188 28.742188 L 27.867188 43.433594 L 30.976562 43.433594 L 30.976562 37.253906 L 33.691406 37.253906 C 35.683594 37.253906 37.300781 35.636719 37.300781 33.640625 L 37.300781 32.359375 C 37.300781 30.359375 35.683594 28.742188 33.691406 28.742188 "/>
<path style=" stroke:none;fill-rule:nonzero;fill:rgb(0%,0%,0%);fill-opacity:1;" d="M 43.707031 33.039062 C 42.386719 33.039062 41.632812 33.617188 41.078125 34.273438 C 41.003906 34.359375 40.863281 34.308594 40.863281 34.195312 L 40.863281 33.039062 L 38.113281 33.039062 L 38.113281 43.433594 L 40.863281 43.433594 L 40.863281 37.515625 C 40.863281 37.054688 40.976562 36.597656 41.226562 36.214844 C 41.640625 35.59375 42.238281 35.4375 43.425781 35.554688 C 43.347656 34.386719 43.75 33.027344 43.707031 33.039062 "/>
<path style=" stroke:none;fill-rule:nonzero;fill:rgb(0%,0%,0%);fill-opacity:1;" d="M 58.015625 33.378906 C 57.949219 33.5 57.765625 33.480469 57.695312 33.359375 C 56.605469 31.515625 54.183594 32 53.25 33.371094 C 53.230469 33.398438 53.1875 33.386719 53.1875 33.351562 L 53.203125 32.496094 L 50.234375 32.636719 L 50.234375 43.730469 L 53 44 L 53.15625 35.03125 C 53.390625 33.984375 54.613281 33.847656 55.027344 34.6875 C 55.109375 34.851562 55.140625 35.039062 55.140625 35.222656 L 55.140625 44.117188 L 57.949219 44.316406 L 57.949219 35.539062 C 57.949219 35.335938 57.976562 35.128906 58.042969 34.9375 C 58.265625 34.3125 58.730469 34.144531 59.136719 34.140625 C 59.441406 34.140625 59.8125 34.207031 60.070312 34.617188 C 60.203125 34.832031 60.261719 35.085938 60.261719 35.335938 L 60.261719 44.316406 L 63.042969 44.316406 L 63.042969 34.625 C 62.921875 31.480469 59.042969 31.511719 58.015625 33.378906 "/>
<path style=" stroke:none;fill-rule:nonzero;fill:rgb(0%,0%,0%);fill-opacity:1;" d="M 70.320312 32.621094 L 70.320312 41.5 C 70.320312 42.472656 68.050781 43.277344 68.050781 40.976562 L 68.011719 32.496094 L 65.230469 32.496094 L 65.230469 41.933594 C 65.230469 42.863281 65.761719 43.730469 66.613281 44.097656 C 66.929688 44.234375 67.28125 44.316406 67.652344 44.316406 C 68.867188 44.316406 69.414062 43.96875 70.320312 43.011719 L 70.320312 43.953125 L 73.101562 43.761719 L 73.101562 32.757812 Z M 70.320312 32.621094 "/>
<path style=" stroke:none;fill-rule:nonzero;fill:rgb(0%,0%,0%);fill-opacity:1;" d="M 79.773438 35.957031 L 82.441406 36.066406 C 82.238281 33.265625 80.132812 32.65625 78.226562 32.65625 C 76.320312 32.65625 74.976562 33.46875 74.976562 35.34375 C 74.976562 39.351562 80.070312 38.351562 80.070312 40.882812 C 80.070312 41.722656 79.367188 42.074219 78.710938 42.074219 C 78.101562 42.074219 77.757812 41.964844 77.757812 40.273438 C 75.601562 40.367188 74.976562 40.398438 74.976562 40.398438 C 74.976562 43.449219 75.898438 43.554688 77.460938 43.734375 C 80.648438 44.09375 82.402344 42.707031 82.648438 40.476562 C 83 37.324219 77.757812 37.441406 77.757812 35.234375 C 77.757812 34.625 78.007812 34.1875 78.664062 34.1875 C 79.320312 34.1875 79.804688 34.6875 79.773438 35.957031 "/>
<path style=" stroke:none;fill-rule:nonzero;fill:rgb(63.921569%,63.529412%,65.490196%);fill-opacity:1;" d="M 100.511719 38.949219 C 100.511719 39.960938 100.320312 40.742188 99.941406 41.289062 C 99.5625 41.835938 99.03125 42.109375 98.34375 42.109375 C 97.882812 42.109375 97.5 41.9375 97.199219 41.601562 C 96.894531 41.261719 96.746094 40.835938 96.746094 40.328125 C 96.746094 39.535156 97.019531 38.972656 97.574219 38.640625 C 98.128906 38.3125 99.105469 38.144531 100.511719 38.144531 Z M 102.273438 42.214844 C 102.246094 41.753906 102.230469 41.285156 102.230469 40.808594 L 102.230469 35.980469 C 102.230469 34.949219 101.953125 34.1875 101.398438 33.703125 C 100.847656 33.21875 99.984375 32.972656 98.808594 32.972656 C 97.625 32.972656 96.726562 33.207031 96.117188 33.671875 C 95.507812 34.140625 95.203125 34.820312 95.203125 35.71875 L 95.203125 35.921875 L 97.070312 35.921875 L 97.070312 35.820312 C 97.070312 35.304688 97.226562 34.914062 97.539062 34.648438 C 97.851562 34.382812 98.316406 34.25 98.929688 34.25 C 99.503906 34.25 99.90625 34.40625 100.140625 34.714844 C 100.375 35.023438 100.492188 35.582031 100.492188 36.394531 L 100.492188 36.90625 L 99.511719 36.90625 C 98.015625 36.90625 96.890625 37.210938 96.136719 37.8125 C 95.382812 38.417969 95.003906 39.3125 95.003906 40.5 C 95.003906 40.945312 95.066406 41.351562 95.1875 41.71875 L 91.527344 41.71875 L 91.527344 28.796875 L 89.621094 28.796875 L 89.621094 43.398438 L 96.644531 43.398438 C 97.023438 43.578125 97.445312 43.667969 97.921875 43.667969 C 98.421875 43.667969 98.898438 43.546875 99.355469 43.304688 C 99.808594 43.0625 100.207031 42.71875 100.550781 42.269531 L 100.667969 43.566406 L 102.40625 43.566406 C 102.347656 43.125 102.304688 42.671875 102.273438 42.214844 "/>
<path style=" stroke:none;fill-rule:nonzero;fill:rgb(63.921569%,63.529412%,65.490196%);fill-opacity:1;" d="M 107.480469 34.488281 C 106.761719 34.488281 106.238281 34.792969 105.910156 35.402344 C 105.578125 36.011719 105.414062 36.980469 105.414062 38.3125 C 105.414062 39.777344 105.570312 40.832031 105.878906 41.472656 C 106.1875 42.117188 106.6875 42.4375 107.371094 42.4375 C 108.109375 42.4375 108.628906 42.144531 108.929688 41.5625 C 109.230469 40.980469 109.378906 39.929688 109.378906 38.414062 C 109.378906 37.054688 109.226562 36.058594 108.921875 35.429688 C 108.621094 34.800781 108.140625 34.488281 107.480469 34.488281 M 103.578125 43.527344 C 103.609375 43.285156 103.632812 43.019531 103.648438 42.726562 C 103.667969 42.433594 103.675781 42.085938 103.675781 41.6875 L 103.675781 28.796875 L 105.433594 28.796875 L 105.433594 34.386719 C 105.722656 33.921875 106.070312 33.570312 106.472656 33.339844 C 106.875 33.105469 107.339844 32.988281 107.867188 32.988281 C 108.992188 32.988281 109.828125 33.4375 110.367188 34.335938 C 110.90625 35.238281 111.175781 36.628906 111.175781 38.511719 C 111.175781 40.316406 110.902344 41.648438 110.351562 42.507812 C 109.800781 43.367188 108.945312 43.796875 107.777344 43.796875 C 107.242188 43.796875 106.78125 43.691406 106.386719 43.492188 C 105.996094 43.289062 105.683594 42.984375 105.453125 42.585938 L 105.226562 43.527344 Z M 103.578125 43.527344 "/>
<path style=" stroke:none;fill-rule:nonzero;fill:rgb(63.921569%,63.529412%,65.490196%);fill-opacity:1;" d="M 111.871094 40.300781 L 113.769531 40.300781 C 113.789062 40.921875 113.945312 41.394531 114.234375 41.71875 C 114.523438 42.039062 114.941406 42.203125 115.488281 42.203125 C 115.988281 42.203125 116.390625 42.078125 116.695312 41.832031 C 117 41.582031 117.148438 41.253906 117.148438 40.84375 C 117.148438 40.542969 117.035156 40.265625 116.808594 40.015625 C 116.582031 39.761719 116.203125 39.5 115.675781 39.222656 L 113.828125 38.269531 C 113.164062 37.921875 112.695312 37.566406 112.421875 37.207031 C 112.148438 36.847656 112.011719 36.402344 112.011719 35.875 C 112.011719 35.003906 112.332031 34.300781 112.980469 33.761719 C 113.625 33.222656 114.472656 32.953125 115.527344 32.953125 C 116.558594 32.953125 117.371094 33.199219 117.96875 33.6875 C 118.570312 34.175781 118.871094 34.839844 118.871094 35.675781 L 118.871094 35.855469 L 117.011719 35.855469 C 117.011719 35.355469 116.867188 34.960938 116.578125 34.675781 C 116.285156 34.394531 115.882812 34.25 115.371094 34.25 C 114.917969 34.25 114.546875 34.371094 114.257812 34.613281 C 113.972656 34.855469 113.828125 35.160156 113.828125 35.527344 C 113.828125 35.785156 113.90625 36.011719 114.066406 36.203125 C 114.222656 36.394531 114.492188 36.582031 114.867188 36.765625 L 116.546875 37.597656 C 117.507812 38.078125 118.164062 38.535156 118.515625 38.960938 C 118.863281 39.386719 119.039062 39.910156 119.039062 40.539062 C 119.039062 41.484375 118.710938 42.238281 118.054688 42.800781 C 117.398438 43.367188 116.523438 43.648438 115.429688 43.648438 C 114.265625 43.648438 113.378906 43.363281 112.78125 42.796875 C 112.179688 42.230469 111.878906 41.398438 111.871094 40.300781 "/>
<path style=" stroke:none;fill-rule:nonzero;fill:rgb(63.921569%,63.529412%,65.490196%);fill-opacity:1;" d="M 46.191406 71.082031 L 45.214844 67.3125 L 45.886719 67.3125 L 46.394531 69.484375 C 46.441406 69.679688 46.480469 69.863281 46.511719 70.035156 C 46.546875 70.207031 46.574219 70.375 46.59375 70.539062 C 46.636719 70.371094 46.683594 70.164062 46.738281 69.921875 C 46.796875 69.679688 46.828125 69.535156 46.84375 69.484375 L 47.453125 67.3125 L 48.226562 67.3125 L 48.816406 69.527344 C 48.832031 69.578125 48.875 69.78125 48.949219 70.136719 C 48.984375 70.304688 49.011719 70.441406 49.035156 70.539062 C 49.050781 70.417969 49.078125 70.273438 49.113281 70.105469 C 49.148438 69.933594 49.195312 69.734375 49.25 69.5 L 49.785156 67.3125 L 50.441406 67.3125 L 49.449219 71.082031 L 48.632812 71.082031 L 48.011719 68.664062 C 48 68.613281 47.976562 68.503906 47.9375 68.335938 C 47.902344 68.164062 47.863281 67.964844 47.820312 67.734375 C 47.78125 67.933594 47.746094 68.113281 47.714844 68.273438 C 47.679688 68.433594 47.652344 68.5625 47.625 68.667969 L 46.988281 71.082031 Z M 46.191406 71.082031 "/>
<path style=" stroke:none;fill-rule:nonzero;fill:rgb(63.921569%,63.529412%,65.490196%);fill-opacity:1;" d="M 53.140625 71.082031 L 53.140625 68.675781 C 53.140625 68.308594 53.09375 68.054688 53 67.921875 C 52.90625 67.785156 52.746094 67.714844 52.519531 67.714844 C 52.265625 67.714844 52.078125 67.8125 51.960938 68 C 51.84375 68.191406 51.785156 68.492188 51.785156 68.90625 L 51.785156 71.082031 L 51.140625 71.082031 L 51.140625 65.675781 L 51.785156 65.675781 L 51.785156 67.75 C 51.921875 67.5625 52.070312 67.429688 52.230469 67.347656 C 52.390625 67.261719 52.574219 67.222656 52.785156 67.222656 C 53.097656 67.222656 53.34375 67.3125 53.523438 67.496094 C 53.703125 67.675781 53.792969 67.925781 53.792969 68.238281 L 53.792969 71.082031 Z M 53.140625 71.082031 "/>
<path style=" stroke:none;fill-rule:nonzero;fill:rgb(63.921569%,63.529412%,65.490196%);fill-opacity:1;" d="M 55.382812 68.859375 L 56.835938 68.859375 L 56.835938 68.539062 C 56.835938 68.253906 56.777344 68.039062 56.660156 67.894531 C 56.542969 67.746094 56.371094 67.671875 56.144531 67.671875 C 55.890625 67.671875 55.703125 67.769531 55.578125 67.957031 C 55.457031 68.148438 55.390625 68.449219 55.382812 68.859375 M 57.472656 69.902344 C 57.453125 70.300781 57.324219 70.613281 57.089844 70.835938 C 56.851562 71.0625 56.527344 71.175781 56.125 71.175781 C 55.621094 71.175781 55.261719 71.019531 55.042969 70.710938 C 54.824219 70.40625 54.714844 69.890625 54.714844 69.167969 C 54.714844 68.492188 54.824219 68 55.050781 67.691406 C 55.273438 67.382812 55.632812 67.230469 56.125 67.230469 C 56.589844 67.230469 56.929688 67.351562 57.148438 67.597656 C 57.367188 67.84375 57.472656 68.230469 57.472656 68.761719 L 57.472656 69.347656 L 55.378906 69.347656 L 55.378906 69.566406 C 55.378906 69.9375 55.4375 70.207031 55.558594 70.375 C 55.675781 70.542969 55.863281 70.625 56.125 70.625 C 56.320312 70.625 56.480469 70.5625 56.601562 70.4375 C 56.722656 70.3125 56.796875 70.132812 56.828125 69.902344 Z M 57.472656 69.902344 "/>
<path style=" stroke:none;fill-rule:nonzero;fill:rgb(63.921569%,63.529412%,65.490196%);fill-opacity:1;" d="M 60.386719 71.082031 L 60.386719 68.675781 C 60.386719 68.308594 60.339844 68.054688 60.246094 67.921875 C 60.152344 67.785156 59.988281 67.714844 59.761719 67.714844 C 59.507812 67.714844 59.320312 67.8125 59.203125 68 C 59.085938 68.191406 59.027344 68.492188 59.027344 68.90625 L 59.027344 71.082031 L 58.382812 71.082031 L 58.382812 67.90625 C 58.382812 67.828125 58.378906 67.738281 58.375 67.640625 C 58.367188 67.542969 58.359375 67.433594 58.347656 67.3125 L 59.003906 67.3125 L 59.035156 67.75 C 59.167969 67.566406 59.3125 67.433594 59.472656 67.347656 C 59.632812 67.265625 59.816406 67.222656 60.03125 67.222656 C 60.339844 67.222656 60.585938 67.3125 60.765625 67.496094 C 60.945312 67.675781 61.039062 67.925781 61.039062 68.238281 L 61.039062 71.082031 Z M 60.386719 71.082031 "/>
<path style=" stroke:none;fill-rule:nonzero;fill:rgb(63.921569%,63.529412%,65.490196%);fill-opacity:1;" d="M 64.179688 66.667969 L 64.179688 66.425781 C 64.179688 66.246094 64.199219 66.113281 64.242188 66.023438 C 64.28125 65.933594 64.347656 65.855469 64.441406 65.789062 C 64.539062 65.722656 64.664062 65.671875 64.808594 65.640625 C 64.957031 65.609375 65.136719 65.59375 65.355469 65.59375 L 65.519531 65.59375 L 65.519531 66.101562 C 65.238281 66.109375 65.050781 66.15625 64.957031 66.234375 C 64.863281 66.316406 64.816406 66.523438 64.816406 66.863281 L 64.816406 67.3125 L 65.519531 67.3125 L 65.519531 67.777344 L 64.816406 67.777344 L 64.816406 71.082031 L 64.179688 71.082031 L 64.179688 67.777344 L 63.652344 67.777344 L 63.652344 67.3125 L 64.179688 67.3125 Z M 64.179688 66.667969 "/>
<path style=" stroke:none;fill-rule:nonzero;fill:rgb(63.921569%,63.529412%,65.490196%);fill-opacity:1;" d="M 67.484375 67.777344 C 67.214844 67.777344 67.019531 67.890625 66.902344 68.109375 C 66.785156 68.328125 66.726562 68.691406 66.726562 69.199219 C 66.726562 69.714844 66.785156 70.082031 66.902344 70.296875 C 67.019531 70.515625 67.210938 70.625 67.484375 70.625 C 67.75 70.625 67.945312 70.515625 68.058594 70.296875 C 68.175781 70.082031 68.234375 69.714844 68.234375 69.207031 C 68.234375 68.6875 68.175781 68.320312 68.058594 68.105469 C 67.945312 67.886719 67.75 67.777344 67.484375 67.777344 M 66.066406 69.191406 C 66.066406 68.503906 66.179688 68.003906 66.40625 67.695312 C 66.628906 67.382812 66.988281 67.230469 67.484375 67.230469 C 67.980469 67.230469 68.335938 67.382812 68.558594 67.691406 C 68.78125 68.003906 68.894531 68.503906 68.894531 69.199219 C 68.894531 69.894531 68.78125 70.394531 68.558594 70.707031 C 68.335938 71.019531 67.976562 71.175781 67.484375 71.175781 C 66.984375 71.175781 66.625 71.019531 66.402344 70.707031 C 66.179688 70.394531 66.066406 69.890625 66.066406 69.191406 "/>
<path style=" stroke:none;fill-rule:nonzero;fill:rgb(63.921569%,63.529412%,65.490196%);fill-opacity:1;" d="M 71.15625 67.777344 C 70.886719 67.777344 70.695312 67.890625 70.574219 68.109375 C 70.457031 68.328125 70.398438 68.691406 70.398438 69.199219 C 70.398438 69.714844 70.457031 70.082031 70.574219 70.296875 C 70.691406 70.515625 70.886719 70.625 71.15625 70.625 C 71.425781 70.625 71.617188 70.515625 71.734375 70.296875 C 71.847656 70.082031 71.90625 69.714844 71.90625 69.207031 C 71.90625 68.6875 71.847656 68.320312 71.734375 68.105469 C 71.617188 67.886719 71.425781 67.777344 71.15625 67.777344 M 69.738281 69.191406 C 69.738281 68.503906 69.851562 68.003906 70.078125 67.695312 C 70.304688 67.382812 70.664062 67.230469 71.15625 67.230469 C 71.652344 67.230469 72.011719 67.382812 72.230469 67.691406 C 72.453125 68.003906 72.566406 68.503906 72.566406 69.199219 C 72.566406 69.894531 72.453125 70.394531 72.230469 70.707031 C 72.007812 71.019531 71.648438 71.175781 71.15625 71.175781 C 70.65625 71.175781 70.296875 71.019531 70.074219 70.707031 C 69.851562 70.394531 69.738281 69.890625 69.738281 69.191406 "/>
<path style=" stroke:none;fill-rule:nonzero;fill:rgb(63.921569%,63.529412%,65.490196%);fill-opacity:1;" d="M 74.777344 67.765625 C 74.535156 67.765625 74.355469 67.878906 74.238281 68.113281 C 74.121094 68.34375 74.0625 68.703125 74.0625 69.183594 C 74.0625 69.746094 74.121094 70.136719 74.234375 70.355469 C 74.347656 70.574219 74.539062 70.683594 74.8125 70.683594 C 75.066406 70.683594 75.25 70.566406 75.363281 70.335938 C 75.476562 70.101562 75.535156 69.726562 75.535156 69.207031 C 75.535156 68.691406 75.476562 68.324219 75.355469 68.101562 C 75.238281 67.875 75.042969 67.765625 74.777344 67.765625 M 75.535156 67.726562 L 75.535156 65.675781 L 76.1875 65.675781 L 76.1875 70.410156 C 76.1875 70.601562 76.1875 70.742188 76.195312 70.832031 C 76.199219 70.925781 76.207031 71.003906 76.214844 71.074219 L 75.578125 71.074219 L 75.542969 70.710938 C 75.421875 70.867188 75.289062 70.980469 75.144531 71.054688 C 74.996094 71.128906 74.832031 71.167969 74.640625 71.167969 C 74.21875 71.167969 73.90625 71.011719 73.703125 70.703125 C 73.503906 70.390625 73.40625 69.90625 73.40625 69.242188 C 73.40625 68.550781 73.503906 68.039062 73.703125 67.710938 C 73.90625 67.378906 74.214844 67.214844 74.636719 67.214844 C 74.828125 67.214844 75 67.257812 75.148438 67.34375 C 75.300781 67.429688 75.429688 67.558594 75.535156 67.726562 "/>
<path style=" stroke:none;fill-rule:nonzero;fill:rgb(63.921569%,63.529412%,65.490196%);fill-opacity:1;" d="M 79.078125 69.933594 L 79.78125 69.933594 C 79.789062 70.164062 79.84375 70.339844 79.953125 70.460938 C 80.058594 70.578125 80.214844 70.640625 80.417969 70.640625 C 80.601562 70.640625 80.75 70.59375 80.863281 70.503906 C 80.976562 70.410156 81.03125 70.289062 81.03125 70.136719 C 81.03125 70.023438 80.988281 69.921875 80.90625 69.828125 C 80.820312 69.734375 80.683594 69.636719 80.488281 69.535156 L 79.800781 69.183594 C 79.554688 69.054688 79.382812 68.921875 79.28125 68.789062 C 79.179688 68.65625 79.128906 68.492188 79.128906 68.296875 C 79.128906 67.972656 79.25 67.710938 79.488281 67.511719 C 79.726562 67.3125 80.042969 67.214844 80.433594 67.214844 C 80.8125 67.214844 81.113281 67.304688 81.335938 67.484375 C 81.558594 67.667969 81.667969 67.914062 81.667969 68.222656 L 81.667969 68.289062 L 80.980469 68.289062 C 80.980469 68.101562 80.925781 67.957031 80.820312 67.851562 C 80.710938 67.746094 80.5625 67.695312 80.375 67.695312 C 80.203125 67.695312 80.066406 67.738281 79.960938 67.828125 C 79.855469 67.917969 79.800781 68.03125 79.800781 68.167969 C 79.800781 68.261719 79.832031 68.347656 79.890625 68.417969 C 79.949219 68.488281 80.046875 68.558594 80.1875 68.625 L 80.808594 68.933594 C 81.164062 69.113281 81.410156 69.28125 81.539062 69.4375 C 81.667969 69.597656 81.730469 69.792969 81.730469 70.023438 C 81.730469 70.375 81.609375 70.652344 81.367188 70.863281 C 81.125 71.070312 80.800781 71.175781 80.394531 71.175781 C 79.964844 71.175781 79.636719 71.070312 79.414062 70.859375 C 79.191406 70.648438 79.078125 70.339844 79.078125 69.933594 "/>
<path style=" stroke:none;fill-rule:nonzero;fill:rgb(63.921569%,63.529412%,65.490196%);fill-opacity:1;" d="M 84.523438 69.105469 C 84.003906 69.105469 83.640625 69.167969 83.433594 69.289062 C 83.230469 69.410156 83.128906 69.613281 83.128906 69.902344 C 83.128906 70.089844 83.183594 70.242188 83.296875 70.367188 C 83.40625 70.488281 83.550781 70.550781 83.71875 70.550781 C 83.972656 70.550781 84.171875 70.453125 84.3125 70.253906 C 84.453125 70.054688 84.523438 69.769531 84.523438 69.398438 Z M 83.25 68.296875 L 82.554688 68.296875 L 82.554688 68.222656 C 82.554688 67.894531 82.667969 67.648438 82.894531 67.476562 C 83.121094 67.304688 83.453125 67.222656 83.890625 67.222656 C 84.328125 67.222656 84.648438 67.308594 84.851562 67.488281 C 85.058594 67.664062 85.160156 67.941406 85.160156 68.316406 L 85.160156 70.078125 C 85.160156 70.253906 85.164062 70.421875 85.175781 70.589844 C 85.1875 70.757812 85.203125 70.921875 85.226562 71.082031 L 84.582031 71.082031 L 84.535156 70.609375 C 84.410156 70.773438 84.261719 70.898438 84.09375 70.988281 C 83.925781 71.074219 83.75 71.121094 83.5625 71.121094 C 83.242188 71.121094 82.984375 71.011719 82.785156 70.800781 C 82.582031 70.589844 82.484375 70.308594 82.484375 69.964844 C 82.484375 69.53125 82.621094 69.207031 82.902344 68.984375 C 83.183594 68.765625 83.597656 68.65625 84.152344 68.65625 L 84.515625 68.65625 L 84.515625 68.46875 C 84.515625 68.171875 84.472656 67.96875 84.386719 67.855469 C 84.296875 67.742188 84.148438 67.6875 83.9375 67.6875 C 83.710938 67.6875 83.539062 67.734375 83.421875 67.832031 C 83.304688 67.929688 83.25 68.070312 83.25 68.257812 Z M 83.25 68.296875 "/>
<path style=" stroke:none;fill-rule:nonzero;fill:rgb(63.921569%,63.529412%,65.490196%);fill-opacity:1;" d="M 86.324219 66.667969 L 86.324219 66.425781 C 86.324219 66.246094 86.34375 66.113281 86.382812 66.023438 C 86.425781 65.933594 86.492188 65.855469 86.585938 65.789062 C 86.683594 65.722656 86.808594 65.671875 86.953125 65.640625 C 87.101562 65.609375 87.28125 65.59375 87.5 65.59375 L 87.664062 65.59375 L 87.664062 66.101562 C 87.382812 66.109375 87.191406 66.15625 87.101562 66.234375 C 87.007812 66.316406 86.960938 66.523438 86.960938 66.863281 L 86.960938 67.3125 L 87.664062 67.3125 L 87.664062 67.777344 L 86.960938 67.777344 L 86.960938 71.082031 L 86.324219 71.082031 L 86.324219 67.777344 L 85.796875 67.777344 L 85.796875 67.3125 L 86.324219 67.3125 Z M 86.324219 66.667969 "/>
<path style=" stroke:none;fill-rule:nonzero;fill:rgb(63.921569%,63.529412%,65.490196%);fill-opacity:1;" d="M 88.886719 68.859375 L 90.339844 68.859375 L 90.339844 68.539062 C 90.339844 68.253906 90.28125 68.039062 90.164062 67.894531 C 90.046875 67.746094 89.875 67.671875 89.648438 67.671875 C 89.394531 67.671875 89.207031 67.769531 89.082031 67.957031 C 88.960938 68.148438 88.894531 68.449219 88.886719 68.859375 M 90.976562 69.902344 C 90.957031 70.300781 90.828125 70.613281 90.59375 70.835938 C 90.355469 71.0625 90.03125 71.175781 89.628906 71.175781 C 89.125 71.175781 88.765625 71.019531 88.546875 70.710938 C 88.328125 70.40625 88.21875 69.890625 88.21875 69.167969 C 88.21875 68.492188 88.328125 68 88.554688 67.691406 C 88.78125 67.382812 89.136719 67.230469 89.628906 67.230469 C 90.09375 67.230469 90.433594 67.351562 90.652344 67.597656 C 90.871094 67.84375 90.976562 68.230469 90.976562 68.761719 L 90.976562 69.347656 L 88.882812 69.347656 L 88.882812 69.566406 C 88.882812 69.9375 88.941406 70.207031 89.0625 70.375 C 89.179688 70.542969 89.367188 70.625 89.628906 70.625 C 89.824219 70.625 89.984375 70.5625 90.105469 70.4375 C 90.226562 70.3125 90.300781 70.132812 90.332031 69.902344 Z M 90.976562 69.902344 "/>
<path style=" stroke:none;fill-rule:nonzero;fill:rgb(63.921569%,63.529412%,65.490196%);fill-opacity:1;" d="M 92.734375 66.246094 L 92.734375 67.3125 L 93.484375 67.3125 L 93.484375 67.777344 L 92.734375 67.777344 L 92.734375 70.039062 C 92.734375 70.242188 92.765625 70.382812 92.824219 70.457031 C 92.886719 70.535156 93.003906 70.574219 93.167969 70.574219 C 93.226562 70.574219 93.324219 70.570312 93.460938 70.558594 L 93.484375 70.558594 L 93.480469 71.046875 C 93.378906 71.070312 93.285156 71.085938 93.199219 71.097656 C 93.109375 71.105469 93.027344 71.113281 92.953125 71.113281 C 92.636719 71.113281 92.410156 71.050781 92.28125 70.925781 C 92.152344 70.800781 92.089844 70.582031 92.089844 70.265625 L 92.089844 67.777344 L 91.515625 67.777344 L 91.515625 67.3125 L 92.089844 67.3125 L 92.089844 66.554688 Z M 92.734375 66.246094 "/>
<path style=" stroke:none;fill-rule:nonzero;fill:rgb(63.921569%,63.529412%,65.490196%);fill-opacity:1;" d="M 95.386719 72.511719 L 94.75 72.511719 L 95.164062 71.082031 L 93.871094 67.3125 L 94.628906 67.3125 L 95.53125 70.292969 L 96.425781 67.3125 L 97.121094 67.3125 Z M 95.386719 72.511719 "/>
<path style=" stroke:none;fill-rule:nonzero;fill:rgb(63.921569%,63.529412%,65.490196%);fill-opacity:1;" d="M 101.839844 69.808594 L 102.488281 69.808594 C 102.480469 70.238281 102.359375 70.574219 102.121094 70.816406 C 101.882812 71.054688 101.554688 71.175781 101.132812 71.175781 C 100.636719 71.175781 100.28125 71.019531 100.058594 70.710938 C 99.835938 70.40625 99.722656 69.902344 99.722656 69.207031 C 99.722656 68.507812 99.835938 68.003906 100.058594 67.695312 C 100.28125 67.382812 100.636719 67.230469 101.132812 67.230469 C 101.535156 67.230469 101.855469 67.335938 102.101562 67.550781 C 102.347656 67.765625 102.46875 68.046875 102.46875 68.394531 L 102.46875 68.476562 L 101.832031 68.476562 C 101.832031 68.253906 101.773438 68.085938 101.660156 67.960938 C 101.542969 67.839844 101.378906 67.777344 101.171875 67.777344 C 100.886719 67.777344 100.683594 67.882812 100.5625 68.09375 C 100.441406 68.304688 100.382812 68.675781 100.382812 69.207031 C 100.382812 69.722656 100.441406 70.085938 100.558594 70.300781 C 100.671875 70.515625 100.867188 70.625 101.132812 70.625 C 101.34375 70.625 101.511719 70.550781 101.640625 70.402344 C 101.765625 70.253906 101.832031 70.054688 101.839844 69.808594 "/>
<path style=" stroke:none;fill-rule:nonzero;fill:rgb(63.921569%,63.529412%,65.490196%);fill-opacity:1;" d="M 104.710938 67.777344 C 104.441406 67.777344 104.25 67.890625 104.132812 68.109375 C 104.011719 68.328125 103.953125 68.691406 103.953125 69.199219 C 103.953125 69.714844 104.011719 70.082031 104.128906 70.296875 C 104.246094 70.515625 104.441406 70.625 104.710938 70.625 C 104.980469 70.625 105.171875 70.515625 105.289062 70.296875 C 105.402344 70.082031 105.460938 69.714844 105.460938 69.207031 C 105.460938 68.6875 105.402344 68.320312 105.289062 68.105469 C 105.171875 67.886719 104.980469 67.777344 104.710938 67.777344 M 103.292969 69.191406 C 103.292969 68.503906 103.40625 68.003906 103.632812 67.695312 C 103.859375 67.382812 104.21875 67.230469 104.710938 67.230469 C 105.207031 67.230469 105.566406 67.382812 105.789062 67.691406 C 106.011719 68.003906 106.121094 68.503906 106.121094 69.199219 C 106.121094 69.894531 106.007812 70.394531 105.785156 70.707031 C 105.5625 71.019531 105.203125 71.175781 104.710938 71.175781 C 104.214844 71.175781 103.851562 71.019531 103.628906 70.707031 C 103.40625 70.394531 103.292969 69.890625 103.292969 69.191406 "/>
<path style=" stroke:none;fill-rule:nonzero;fill:rgb(63.921569%,63.529412%,65.490196%);fill-opacity:1;" d="M 107.6875 67.3125 L 107.6875 69.714844 C 107.6875 70.078125 107.734375 70.328125 107.828125 70.464844 C 107.921875 70.601562 108.082031 70.667969 108.3125 70.667969 C 108.566406 70.667969 108.75 70.574219 108.867188 70.386719 C 108.984375 70.203125 109.042969 69.902344 109.042969 69.492188 L 109.042969 67.3125 L 109.6875 67.3125 L 109.6875 70.488281 C 109.691406 70.570312 109.695312 70.664062 109.699219 70.761719 C 109.707031 70.859375 109.714844 70.964844 109.722656 71.082031 L 109.070312 71.082031 L 109.035156 70.640625 C 108.902344 70.824219 108.757812 70.957031 108.597656 71.042969 C 108.433594 71.132812 108.25 71.175781 108.039062 71.175781 C 107.730469 71.175781 107.484375 71.082031 107.304688 70.902344 C 107.125 70.71875 107.035156 70.472656 107.035156 70.160156 L 107.035156 67.3125 Z M 107.6875 67.3125 "/>
<path style=" stroke:none;fill-rule:nonzero;fill:rgb(63.921569%,63.529412%,65.490196%);fill-opacity:1;" d="M 112.734375 71.082031 L 112.734375 68.675781 C 112.734375 68.308594 112.6875 68.054688 112.59375 67.921875 C 112.5 67.785156 112.339844 67.714844 112.113281 67.714844 C 111.855469 67.714844 111.667969 67.8125 111.550781 68 C 111.433594 68.191406 111.375 68.492188 111.375 68.90625 L 111.375 71.082031 L 110.730469 71.082031 L 110.730469 67.90625 C 110.730469 67.828125 110.730469 67.738281 110.722656 67.640625 C 110.714844 67.542969 110.707031 67.433594 110.695312 67.3125 L 111.355469 67.3125 L 111.382812 67.75 C 111.515625 67.566406 111.660156 67.433594 111.820312 67.347656 C 111.980469 67.265625 112.167969 67.222656 112.378906 67.222656 C 112.6875 67.222656 112.933594 67.3125 113.113281 67.496094 C 113.296875 67.675781 113.386719 67.925781 113.386719 68.238281 L 113.386719 71.082031 Z M 112.734375 71.082031 "/>
<path style=" stroke:none;fill-rule:nonzero;fill:rgb(63.921569%,63.529412%,65.490196%);fill-opacity:1;" d="M 115.242188 66.246094 L 115.242188 67.3125 L 115.992188 67.3125 L 115.992188 67.777344 L 115.242188 67.777344 L 115.242188 70.039062 C 115.242188 70.242188 115.273438 70.382812 115.335938 70.457031 C 115.398438 70.535156 115.511719 70.574219 115.679688 70.574219 C 115.738281 70.574219 115.835938 70.570312 115.972656 70.558594 L 115.992188 70.558594 L 115.988281 71.046875 C 115.890625 71.070312 115.796875 71.085938 115.707031 71.097656 C 115.621094 71.105469 115.539062 71.113281 115.460938 71.113281 C 115.144531 71.113281 114.921875 71.050781 114.792969 70.925781 C 114.664062 70.800781 114.597656 70.582031 114.597656 70.265625 L 114.597656 67.777344 L 114.027344 67.777344 L 114.027344 67.3125 L 114.597656 67.3125 L 114.597656 66.554688 Z M 115.242188 66.246094 "/>
<path style=" stroke:none;fill-rule:nonzero;fill:rgb(63.921569%,63.529412%,65.490196%);fill-opacity:1;" d="M 116.585938 69.933594 L 117.289062 69.933594 C 117.296875 70.164062 117.355469 70.339844 117.460938 70.460938 C 117.570312 70.578125 117.726562 70.640625 117.925781 70.640625 C 118.113281 70.640625 118.261719 70.59375 118.375 70.503906 C 118.488281 70.410156 118.542969 70.289062 118.542969 70.136719 C 118.542969 70.023438 118.5 69.921875 118.417969 69.828125 C 118.332031 69.734375 118.191406 69.636719 117.996094 69.535156 L 117.3125 69.183594 C 117.066406 69.054688 116.890625 68.921875 116.789062 68.789062 C 116.691406 68.65625 116.640625 68.492188 116.640625 68.296875 C 116.640625 67.972656 116.757812 67.710938 116.996094 67.511719 C 117.238281 67.3125 117.550781 67.214844 117.941406 67.214844 C 118.324219 67.214844 118.625 67.304688 118.847656 67.484375 C 119.070312 67.667969 119.179688 67.914062 119.179688 68.222656 L 119.179688 68.289062 L 118.492188 68.289062 C 118.492188 68.101562 118.4375 67.957031 118.332031 67.851562 C 118.222656 67.746094 118.074219 67.695312 117.882812 67.695312 C 117.714844 67.695312 117.578125 67.738281 117.472656 67.828125 C 117.367188 67.917969 117.3125 68.03125 117.3125 68.167969 C 117.3125 68.261719 117.339844 68.347656 117.402344 68.417969 C 117.457031 68.488281 117.558594 68.558594 117.695312 68.625 L 118.320312 68.933594 C 118.675781 69.113281 118.917969 69.28125 119.046875 69.4375 C 119.175781 69.597656 119.242188 69.792969 119.242188 70.023438 C 119.242188 70.375 119.121094 70.652344 118.878906 70.863281 C 118.632812 71.070312 118.3125 71.175781 117.90625 71.175781 C 117.472656 71.175781 117.144531 71.070312 116.925781 70.859375 C 116.703125 70.648438 116.589844 70.339844 116.585938 69.933594 "/>
<path style=" stroke:none;fill-rule:nonzero;fill:rgb(11.764706%,7.45098%,5.882353%);fill-opacity:1;" d="M 119.597656 30.757812 L 119.597656 28.921875 L 119.074219 28.921875 L 119.074219 28.710938 L 120.386719 28.710938 L 120.386719 28.921875 L 119.878906 28.921875 L 119.878906 30.757812 Z M 119.597656 30.757812 "/>
<path style=" stroke:none;fill-rule:nonzero;fill:rgb(11.764706%,7.45098%,5.882353%);fill-opacity:1;" d="M 120.691406 30.757812 L 120.691406 28.710938 L 121.144531 28.710938 L 121.601562 30.117188 C 121.609375 30.148438 121.621094 30.1875 121.636719 30.242188 C 121.652344 30.296875 121.667969 30.363281 121.691406 30.441406 C 121.703125 30.375 121.71875 30.3125 121.730469 30.257812 C 121.746094 30.199219 121.757812 30.152344 121.769531 30.113281 L 122.214844 28.710938 L 122.652344 28.710938 L 122.652344 30.757812 L 122.394531 30.757812 L 122.394531 29.292969 C 122.394531 29.210938 122.394531 29.136719 122.394531 29.070312 C 122.394531 29.003906 122.398438 28.933594 122.398438 28.867188 L 121.800781 30.757812 L 121.558594 30.757812 L 120.945312 28.847656 C 120.949219 28.917969 120.949219 29 120.953125 29.082031 C 120.953125 29.167969 120.953125 29.257812 120.953125 29.351562 L 120.953125 30.757812 Z M 120.691406 30.757812 "/>
</g>
</svg>
