<svg width="361" height="150" viewBox="0 0 361 150" fill="none" xmlns="http://www.w3.org/2000/svg">
<g clip-path="url(#clip0)">
<path d="M200.627 108.635C206.354 100.734 209.737 91.0093 209.737 80.4814C209.737 68.1861 205.135 56.9683 197.555 48.4911L197.546 48.4816C208.206 20.1392 235.433 -0.00944728 267.339 3.32315e-06C308.515 0.0189045 341.895 33.6253 341.876 75.0756C341.866 116.517 308.458 150.104 267.282 150.085C238.099 150.076 212.847 133.197 200.599 108.616L200.627 108.635Z" fill="#789BD7"/>
<path d="M14.053 91.463C14.053 93.2019 14.9131 94.6384 16.7276 94.6384C18.1452 94.6384 19.0146 93.2208 19.0146 91.7087L19.043 67.2127C19.043 65.9463 18.0223 64.8406 16.7654 64.8312C14.639 64.8312 14.0814 66.0975 14.0814 68.9516L14.053 91.463ZM13.9302 60.7863C16.7748 57.781 19.0619 55.7964 23.3902 55.8058C30.8751 55.8153 33.0677 62.081 33.0677 68.1861L33.0393 90.6219C33.0299 100.45 28.7676 104.647 22.9366 104.637C19.317 104.637 16.2456 102.161 14.1948 99.392H14.0436L14.0247 116.876L0 116.857L0.0756048 56.9682L13.9018 56.9777L13.9302 60.7863Z" fill="#231F20"/>
<path d="M37.2543 56.8076L50.797 56.817V62.7615H50.9577C51.4207 59.5294 51.3262 57.0155 55.6168 56.7414L59.2836 56.7509L59.3498 72.316C59.3498 72.316 58.0456 72.3538 57.2612 72.3538C53.4715 72.3538 51.2695 74.811 51.2695 78.4589L51.1089 103.267H37.2448L37.2543 56.8076Z" fill="#231F20"/>
<path d="M79.9805 56.8265H94.0052V60.3894H94.1658C94.799 58.8867 96.2072 57.7054 97.7854 56.9115C99.3637 56.0326 101.169 55.6452 102.671 55.6452C107.085 55.6452 109.759 58.5749 111.016 60.9564C113.464 58.1779 116.299 55.6452 120.24 55.6452C126.147 55.6546 129.766 59.5388 129.766 68.016L129.757 103.295L115.732 103.286L115.742 68.4885C115.742 67.0615 115.354 65.1525 113.54 65.1525C111.725 65.1525 111.649 67.1371 111.649 68.5641L111.64 103.286L98.0878 103.276L98.0973 68.4791C98.0973 67.052 97.7098 65.1525 95.9709 65.1525C94.0902 65.1525 94.0052 67.1371 94.0052 68.5641L93.9957 103.276H79.971L79.9805 56.8265Z" fill="#231F20"/>
<path d="M132.809 56.8454L146.825 56.8548L146.815 91.652C146.815 93.079 147.212 94.9786 149.027 94.9786C150.907 94.9786 150.992 92.994 150.992 91.5764L151.002 56.8548H165.026L165.008 103.314L150.983 103.305L150.992 99.7322H150.832C149.565 102.747 145.312 104.486 142.326 104.486C136.41 104.486 132.79 100.602 132.8 92.1245L132.809 56.8454Z" fill="#231F20"/>
<path d="M167.748 86.5864H180.743L180.733 92.9278C180.733 94.2792 181.527 95.4606 183.02 95.4606C184.277 95.47 185.544 94.6762 185.544 92.7766V90.395C185.553 83.2598 168.136 84.6774 168.145 70.1707C168.145 63.99 169.563 55.6641 183.748 55.6735C189.655 55.6735 198.557 57.9795 198.548 67.4868V71.8529L185.553 71.8435V67.4868C185.553 65.4927 184.759 64.7083 183.427 64.7083C182.085 64.7083 181.14 65.3415 181.14 67.4773V69.3013C181.14 72.1554 185.865 73.7431 191.932 77.2398C198.311 80.9633 199.096 84.6869 199.096 91.0282C199.096 101.339 192.471 104.505 182.472 104.505C173.485 104.495 167.739 101.566 167.739 91.6614L167.748 86.5864Z" fill="#231F20"/>
<path d="M62.6008 56.817L76.6255 56.8265L76.6161 103.276H62.5914L62.6008 56.817Z" fill="#231F20"/>
<path d="M69.5753 54.3504C73.3556 54.3504 76.427 51.2695 76.427 47.4609C76.4365 43.6523 73.3745 40.5714 69.5848 40.5714C65.8046 40.562 62.7331 43.6429 62.7331 47.4515C62.7331 51.2601 65.7951 54.341 69.5753 54.3504Z" fill="#231F20"/>
<path d="M227.202 43.3688C224.131 45.5992 222.136 48.0469 221.21 50.7119C220.284 53.3959 219.434 57.7148 218.678 63.6687L216.305 82.2014C215.767 86.4258 215.502 89.6106 215.502 91.7465C215.502 91.7748 215.502 91.8126 215.502 91.841C215.512 93.9674 215.965 95.9993 216.835 97.9272C217.714 99.8645 219.15 101.481 221.154 102.785C223.157 104.098 225.387 104.751 227.882 104.751C229.971 104.751 231.833 104.269 233.487 103.323C235.14 102.369 236.596 100.932 237.843 99.0234L238.042 98.7305L238.892 103.437H248.05L252.284 70.2274H235.065L233.893 79.4323H236.908L235.944 86.9928C235.566 89.9036 235.131 91.8504 234.592 92.89C234.063 93.939 233.194 94.4872 232.06 94.4777C231.02 94.4872 230.321 93.9863 230.103 93.0412C230.009 92.6821 229.971 92.2001 229.971 91.5764C229.971 90.5652 230.084 89.1948 230.302 87.4559L234.129 57.5069C234.545 54.3126 234.942 52.3374 235.405 51.5152C235.849 50.7119 236.586 50.2772 237.55 50.2867C238.656 50.2678 239.374 50.7876 239.544 51.7515C239.592 52.0067 239.62 52.3658 239.62 52.81C239.62 54.0102 239.45 55.9003 239.119 58.5087L238.42 64.0089H253.078L253.409 61.4384C253.768 58.6316 253.947 56.1933 253.947 54.1236C253.947 52.4225 253.824 50.9766 253.588 49.7763C253.068 47.1396 251.509 44.8526 248.882 42.9152C246.273 40.9873 242.795 40.0139 238.439 40.0139C234.006 40.0233 230.273 41.129 227.202 43.3688Z" fill="white"/>
<path d="M259.287 103.437H273.954L277.3 77.2303H286.523L288.007 65.6344H278.774L280.324 53.5282H290.691L292.25 41.3275H267.216L259.287 103.437Z" fill="white"/>
<path d="M329.354 60.068V59.9168V60.068ZM293.81 85.3295C293.498 87.7583 293.347 89.8942 293.347 91.737C293.347 93.4476 293.479 94.903 293.734 96.1127C294.282 98.6171 295.842 100.677 298.431 102.303C301.021 103.928 304.3 104.751 308.288 104.751C311.917 104.751 315.178 104.042 318.088 102.624C320.999 101.216 323.05 99.4582 324.26 97.379C325.479 95.3094 326.377 92.0489 326.944 87.6071C327.218 85.4051 327.359 83.4299 327.359 81.6627C327.359 78.544 326.925 76.1246 326.055 74.3952C324.704 71.6828 320.971 68.1767 314.875 63.8955C312.73 62.3929 311.464 61.1265 311.086 60.0113C310.849 59.3592 310.726 58.537 310.726 57.5447C310.726 56.8548 310.783 56.0893 310.897 55.2293C311.104 53.5944 311.492 52.3753 312.078 51.5436C312.664 50.7214 313.439 50.2772 314.384 50.2867C315.244 50.2772 315.877 50.5985 316.179 51.2601C316.34 51.5909 316.406 52.1012 316.406 52.81C316.406 53.4999 316.34 54.3788 316.198 55.4562L315.631 59.9168H329.231L329.524 57.5825C329.845 55.0876 330.006 52.9612 330.006 51.2128C330.006 49.4739 329.854 48.1036 329.552 47.1018C328.928 45.0794 327.378 43.3972 324.836 42.0457C322.303 40.6849 319.1 40.0233 315.234 40.0233C311.7 40.0233 308.619 40.6282 305.963 41.8756C303.317 43.1042 301.304 44.8148 299.915 46.9979C298.526 49.1809 297.514 52.6588 296.91 57.4313C296.721 58.9056 296.626 60.2571 296.626 61.5045C296.626 63.0261 296.768 64.3775 297.051 65.5399C297.571 67.6663 298.356 69.3107 299.386 70.4921C300.425 71.6828 302.637 73.6297 306.011 76.2947C309.394 78.9598 311.482 80.831 312.314 81.9935C312.824 82.7401 313.061 83.9686 313.07 85.6792C313.07 86.7093 312.976 87.9095 312.806 89.2893C312.588 90.981 312.182 92.2663 311.568 93.1452C310.953 94.0241 310.103 94.4777 309.073 94.4777C308.052 94.4777 307.315 94.1186 306.984 93.3909C306.814 93.0129 306.748 92.4553 306.738 91.6803C306.738 90.9243 306.823 89.9603 306.975 88.7979L307.92 81.3697H294.311L293.81 85.3295Z" fill="white"/>
<path d="M350.003 94.2698V95.4795H347.414L347.404 103.701L345.892 103.692L345.902 95.47H343.322V94.2603L350.003 94.2698ZM360.503 103.711H358.981L358.991 96.2733H358.943L356.344 103.711H355.106L352.64 96.2639H352.602L352.593 103.701H351.071L351.09 94.2698H353.49L355.825 101.282H355.872L358.14 94.2792H360.512L360.503 103.711Z" fill="#231F20"/>
</g>
<defs>
<clipPath id="clip0">
<rect width="360.484" height="150" fill="white"/>
</clipPath>
</defs>
</svg>
