<svg width="218" height="150" viewBox="0 0 218 150" fill="none" xmlns="http://www.w3.org/2000/svg">
<path d="M49.4307 6.1003L49.1451 43.913C49.1451 59.6493 39.869 65.7325 27.4057 65.7325C16.6616 65.7325 2.96447 60.9288 2.96447 44.5585V6.1003C2.87879 4.24394 1.71928 2.61605 0 1.93633H17.6212C15.9362 2.63318 14.8166 4.26678 14.7767 6.1003V44.8726C14.7767 51.3442 16.9872 60.5004 28.9307 60.5004C39.869 60.5004 43.7531 53.2805 43.7531 44.0958L43.6331 6.1003C43.6903 4.34104 42.725 2.71886 41.1599 1.93633H51.8183C50.2875 2.74171 49.3565 4.36389 49.4307 6.1003Z" fill="#004785"/>
<path d="M74.3117 65.7325C68.1657 65.6582 62.1225 64.1274 56.6791 61.26L56.2164 45.6323C57.9643 52.1896 63.482 60.8831 73.038 60.8831C82.1427 60.8831 84.8959 54.3258 84.8959 49.7906C84.8959 40.8457 76.9106 39.7091 68.5941 35.1795C60.2776 30.6443 56.4678 25.4693 56.4678 18.4437C56.3935 5.96321 68.0743 0.925326 76.4365 0.925326C81.2631 0.908191 86.0268 2.07913 90.305 4.34104L90.7677 18.0267C89.4768 13.1202 84.2447 5.72903 75.4255 5.72903C68.4456 5.72903 65.6868 10.6298 65.6868 14.6739C65.6868 20.3115 69.6451 22.442 78.2701 26.4118C86.895 30.3758 95.7313 33.4603 95.7313 46.3177C95.7313 57.8729 85.6213 65.7325 74.3117 65.7325Z" fill="#004785"/>
<path d="M125.405 64.8071H101.792C103.305 63.9846 104.225 62.3739 104.179 60.6489V6.1003C104.253 4.36389 103.322 2.74171 101.792 1.93633H126.233C156.472 1.93633 162.532 23.4873 162.532 32.4493C162.532 48.5397 150.217 64.8071 125.405 64.8071ZM124.308 6.56296C122.097 6.56296 117.237 6.56296 115.86 6.74003V60.0034H123.268C144.02 60.0034 149.829 45.9579 149.829 32.4493C149.754 21.3568 143.323 6.56296 124.308 6.56296Z" fill="#004785"/>
<path d="M198.248 64.8071C200.636 63.5105 201.099 62.2139 200.459 60.3347C200.179 59.4094 197.791 53.7718 195.227 47.4772H172.653C170.728 51.6469 169.009 55.9023 167.513 60.2433C166.679 62.4653 167.141 63.7619 169.632 64.87H156.946C158.779 63.8247 160.281 62.271 161.258 60.3918C163.063 56.7705 187.224 0 187.224 0C187.224 0 211.666 56.7705 213.322 60.2719C214.179 62.3396 215.841 63.9561 217.92 64.75L198.248 64.8071ZM183.729 19.9688C183.729 19.9688 177.468 35.6822 174.538 42.6164H193.108C188.795 32.3579 183.74 19.9688 183.74 19.9688H183.729Z" fill="#004785"/>
<path d="M215.161 73.6948C215.161 73.6948 81.4287 70.3534 2.2105 112.827C2.2105 112.827 86.141 79.4239 215.133 82.7596L215.161 73.6948Z" fill="#005941"/>
<path d="M2.2105 73.6948C2.2105 73.6948 47.2488 74.1746 75.2313 84.6731C75.2313 84.6731 17.8611 79.8979 2.2105 82.2855V73.6948Z" fill="#005941"/>
<path d="M2.2105 88.4886C2.2105 88.4886 34.4598 86.9978 53.8917 88.9627C53.8917 88.9627 6.95137 94.6917 2.2105 97.0793V88.4886Z" fill="#005941"/>
<path d="M193.005 89.9509H192.325C153.387 90.7106 71.867 95.4343 2.2105 120.178V150H215.133V89.9509C215.133 89.9509 206.919 89.6938 193.005 89.9509Z" fill="#005941"/>
</svg>
