<svg width="150" height="150" viewBox="0 0 150 150" fill="none" xmlns="http://www.w3.org/2000/svg">
<path d="M150 74.9977C150 116.419 116.42 150 75 150C33.5758 150 0 116.419 0 74.9977C0 33.5811 33.5758 0 75 0C116.42 0 150 33.5811 150 74.9977Z" fill="#723904"/>
<path d="M141.9 74.9977C141.9 111.945 111.949 141.899 75 141.899C38.0513 141.899 8.09969 111.945 8.09969 74.9977C8.09969 38.0505 38.0513 8.10081 75 8.10081C111.949 8.10081 141.9 38.0505 141.9 74.9977Z" fill="white"/>
<path d="M141.9 74.9977C141.9 111.926 111.925 141.899 75 141.899C38.0699 141.899 8.09969 111.926 8.09969 74.9977H141.9Z" fill="#008356"/>
<path d="M141.9 74.9977C141.9 111.945 111.949 141.899 75.0001 141.899C38.0514 141.899 8.09978 111.945 8.09978 74.9977C8.09978 38.0505 38.0514 8.10073 75.0001 8.10073C111.949 8.10073 141.9 38.0505 141.9 74.9977Z" stroke="white" stroke-width="0.813811" stroke-linejoin="round"/>
<path d="M36.2974 38.7023H43.0479V60.2579C43.0479 60.2579 43.0665 62.3111 45.1135 62.3111C47.1559 62.3111 47.4536 60.2765 47.4536 60.2765V38.7209H54.0367V60.2952C54.0367 60.2952 54.0599 67.4974 45.2438 67.4974C36.4788 67.4974 36.3067 60.3045 36.3067 60.3045L36.2974 38.7023Z" fill="#008356"/>
<path d="M67.0864 47.6272H73.1856C73.1856 47.6272 73.716 38.7023 64.7509 38.7023C62.3131 38.7023 59.8893 39.7545 58.6099 41.1465C57.2188 42.6596 56.5303 44.1634 56.5303 46.7519C56.5303 48.7818 56.7443 51.8545 61.9921 54.8015C65.2069 56.6079 67.0864 57.9534 67.0864 59.8622C67.0864 61.771 66.0257 62.4414 64.5416 62.4414C62.5504 62.4414 62.2992 60.3184 62.2992 60.067C62.2992 59.783 62.2573 57.6927 62.2573 57.6927H55.9488C55.9488 57.6927 54.781 67.4974 64.3788 67.4974C73.7206 67.4974 73.1856 60.3278 73.1856 58.8286C73.1856 54.0287 70.8501 52.4504 67.1376 50.3647C64.095 48.6561 62.5783 47.6272 62.5783 45.9279C62.5783 44.2239 63.7321 43.7583 64.6439 43.7583C67.1283 43.7583 67.1004 46.0815 67.1004 46.3236C67.1004 46.5424 67.1376 47.6784 67.0864 47.6272Z" fill="#008356"/>
<path d="M86.6494 58.2653C86.6494 60.8166 86.5564 62.2133 84.9094 62.2133H82.6298V43.9865H84.7885C85.9841 43.9865 86.6494 44.5405 86.6494 47.9717V58.2653ZM85.277 38.7023H75.9956V67.4974H85.8073C89.6641 67.4974 93.2836 65.2953 93.2836 61.2589V44.9967C93.2836 39.5776 87.8218 38.7023 85.277 38.7023Z" fill="#008356"/>
<path d="M103.612 57.0409H107.138L105.487 44.047L103.612 57.0409ZM101.849 67.4974H95.4376L101.509 38.7023H109.236L115.461 67.4229H108.673L107.887 62.1528H102.9L101.849 67.4974Z" fill="#008356"/>
<path d="M77.796 96.8931H80.4432L79.201 87.1442L77.796 96.8931ZM76.4701 104.733H71.655L76.2189 83.1357H82.0203L86.6959 104.677H81.597L81.0061 100.725H77.261L76.4701 104.733Z" fill="white"/>
<path d="M34.1806 99.3746C34.1806 100.343 33.4222 101.125 32.4825 101.125C31.5427 101.125 30.7844 100.343 30.7844 99.3746V88.4944C30.7844 87.526 31.5427 86.7438 32.4825 86.7438C33.4222 86.7438 34.1806 87.526 34.1806 88.4944V99.3746ZM33.7572 83.1357H31.2077C28.2256 83.1357 25.825 85.5008 25.825 88.4432V99.4305C25.825 102.368 28.2256 104.733 31.2077 104.733H33.7572C36.7393 104.733 39.1353 102.368 39.1353 99.4305V88.4432C39.1353 85.5008 36.7393 83.1357 33.7572 83.1357Z" fill="white"/>
<path d="M46.3743 92.0885V87.0232C47.4722 87.0232 49.6914 86.5949 49.6914 89.514C49.6914 92.3911 48.1189 92.0885 46.3743 92.0885ZM54.674 99.4724C54.674 93.3455 52.4502 94.7376 52.4502 93.9601C52.4502 93.42 54.7299 93.555 54.7299 88.9972C54.7299 84.4346 52.2362 83.1357 49.2122 83.1357H41.4196V104.733H46.458V96.2134C48.533 96.2134 49.6914 96.5952 49.6914 98.5738V104.724H55.3905C55.3905 104.724 55.4184 104.71 55.4184 104.314C55.4184 103.923 54.674 104.398 54.674 99.4724Z" fill="white"/>
<path d="M65.2301 96.6883H63.4809V93.1034H70.2128V104.37H66.663V102.503C66.663 102.503 65.7047 104.733 62.2061 104.733C58.7076 104.733 56.7443 102.345 56.7443 99.491V87.8612C56.7443 85.1097 59.7683 83.1357 63.425 83.1357C67.0864 83.1357 70.0174 85.1609 70.0174 87.7588C70.0174 90.352 70.0034 90.7151 70.0034 90.7151H65.1231V88.3268C65.1231 87.3956 64.0624 86.7206 63.4809 86.7206C62.8947 86.7206 61.6479 87.1349 61.6479 88.5083V98.8671C61.6479 100.115 62.155 100.995 63.3739 100.995C64.5928 100.995 65.2813 99.9565 65.2813 99.0254C65.2813 98.0896 65.2813 96.53 65.2301 96.6883Z" fill="white"/>
<path d="M92.7021 93.7739V104.682H88.0358V83.1357H93.2324L96.8891 95.0588V83.1869H101.504V104.733H96.1494L92.7021 93.7739Z" fill="white"/>
<path d="M103.942 83.1357H108.822V104.733H103.942V83.1357Z" fill="white"/>
<path d="M119.746 90.8222H124.626V87.6517C124.626 85.7848 122.821 83.1357 117.573 83.1357C112.321 83.1357 111.367 86.823 111.367 88.4851V99.2303C111.367 101.255 112.27 104.733 117.732 104.733C123.193 104.733 124.891 101.307 124.891 100.064V96.2739H119.802V99.4398C119.802 100.25 119.011 100.999 118.104 100.999C117.224 100.999 116.406 100.478 116.406 99.4398V88.4851C116.406 87.4981 116.889 87.0046 118.104 87.0046C119.155 87.0046 119.774 87.9403 119.774 88.6387C119.774 89.3417 119.802 90.8734 119.746 90.8222Z" fill="white"/>
</svg>
