<svg width="512" height="512" viewBox="0 0 512 512" fill="none" xmlns="http://www.w3.org/2000/svg">
<path d="M466.286 210.286H310.857C305.808 210.286 301.714 206.192 301.714 201.143V45.7143C301.714 20.4688 281.246 0 256 0C230.754 0 210.286 20.4688 210.286 45.7143V201.143C210.286 206.192 206.192 210.286 201.143 210.286H45.7143C20.4688 210.286 0 230.754 0 256C0 281.246 20.4688 301.714 45.7143 301.714H201.143C206.192 301.714 210.286 305.808 210.286 310.857V466.286C210.286 491.531 230.754 512 256 512C281.246 512 301.714 491.531 301.714 466.286V310.857C301.714 305.808 305.808 301.714 310.857 301.714H466.286C491.531 301.714 512 281.246 512 256C512 230.754 491.531 210.286 466.286 210.286Z" fill="#F2F2F2"/>
</svg>
